<svg width="985" height="404" viewBox="0 0 985 404" fill="none" xmlns="http://www.w3.org/2000/svg">
<g clip-path="url(#clip0_1095_11192)">
<path d="M1.97852 368.52C1.97852 368.52 37.7265 205.077 41.1896 149.863C44.6526 94.665 41.1896 33.1389 41.1896 33.1389H326.854L477.905 2.10493C478.719 2.00929 479.533 2.00929 480.331 2.10493L823.735 33.1549L894.72 14.2348L983.021 365.97L839.327 351.768C839.327 351.768 733.711 384.89 725.061 384.89C716.411 384.89 453.249 343.878 453.249 343.878C453.249 343.878 132.953 402.232 127.767 402.232C122.58 402.232 1.97852 368.52 1.97852 368.52Z" fill="white"/>
<path d="M3.89449 369.045C11.1079 336.034 17.8745 302.912 24.29 269.727C33.9292 219.836 43.297 170.042 44.462 119.131C45.1164 90.488 44.7812 61.7493 43.1853 33.1381C42.5151 33.8075 41.8607 34.461 41.1905 35.1305H316.099C320.184 35.1305 324.493 35.5609 328.531 34.8276C340.643 32.6439 352.676 29.8705 364.725 27.3839C400.25 20.0837 435.79 12.7835 471.315 5.46727C475.831 4.54279 479.438 4.00085 483.986 4.39933C492.844 5.1963 501.717 6.00921 510.574 6.80618C545.141 9.9303 579.708 13.0544 614.291 16.1785C654.874 19.8446 695.442 23.5107 736.026 27.1767C762.821 29.5995 789.6 32.0223 816.395 34.4451C821.262 34.8914 824.151 35.0827 828.874 33.8235C846.509 29.1213 864.16 24.4192 881.794 19.7171C886.279 18.5216 890.779 17.3262 895.263 16.1307C894.45 15.6685 893.62 15.2062 892.806 14.744C895.726 26.3957 898.663 38.0474 901.583 49.6991C908.605 77.6887 915.627 105.662 922.665 133.652C931.171 167.507 939.661 201.378 948.167 235.234C955.524 264.514 962.865 293.811 970.223 323.092C972.632 332.719 975.058 342.346 977.468 351.974C978.234 355.034 979 358.079 979.766 361.139C980.069 362.382 980.197 364.805 980.947 365.857C981.043 366 981.059 366.303 981.106 366.463C981.745 365.618 982.383 364.789 983.037 363.944C948.087 360.485 913.138 357.043 878.187 353.584C869.187 352.691 860.186 351.799 851.185 350.922C847.467 350.555 843.174 349.487 839.423 349.758C835.896 350.013 831.986 351.958 828.651 352.994C819.171 355.943 809.676 358.86 800.164 361.761C779.003 368.216 757.841 374.783 736.44 380.378C732.515 381.398 728.158 382.992 724.136 382.817C720.657 382.657 717.146 381.972 713.715 381.494C675.493 376.218 637.368 370.224 599.226 364.391C557.892 358.063 516.559 351.687 475.241 345.263C469.911 344.434 464.596 343.606 459.266 342.777C457.351 342.474 455.213 341.836 453.25 341.852C447.185 341.916 440.482 344.148 434.562 345.231C397.33 352.006 360.097 358.764 322.849 365.506C278.26 373.588 233.671 381.637 189.05 389.607C173.729 392.348 158.393 395.074 143.056 397.72C138.955 398.421 134.869 399.139 130.768 399.792C128.246 400.191 128.246 400.366 126.172 399.935C108.936 396.429 91.9398 391.185 74.9755 386.578C54.3406 380.968 33.7217 375.261 13.1028 369.539C9.57586 368.551 6.04894 367.579 2.50606 366.59C0.0324323 365.905 -1.02086 369.746 1.45278 370.432C36.5305 380.234 71.6241 390.037 106.877 399.266C114.601 401.29 123.203 404.988 131.279 403.729C141.716 402.103 152.105 400.191 162.494 398.357C204.067 391.025 245.608 383.518 287.149 376.01C329.456 368.36 371.779 360.693 414.086 352.994C425.641 350.89 437.195 348.786 448.749 346.682C449.978 346.459 451.223 346.299 452.436 346.012C452.739 345.949 454.526 345.742 453.266 345.757C452.005 345.789 454.048 345.949 454.399 346.012C455.867 346.283 457.367 346.475 458.851 346.698C494.025 352.165 529.198 357.616 564.371 363.02C607.572 369.667 650.773 376.329 694.006 382.641C703.932 384.092 714.242 386.419 724.28 386.77C728.269 386.913 732.435 385.494 736.265 384.506C746.016 382.004 755.687 379.166 765.342 376.329C786.567 370.097 807.713 363.626 828.826 357.058C831.683 356.166 834.54 355.289 837.396 354.397C838.083 354.189 840.413 353.663 839.487 353.711C843.461 353.536 847.818 354.54 851.759 354.923C892.215 358.923 932.655 362.908 973.111 366.909C976.415 367.244 979.734 367.563 983.037 367.897C984.378 368.025 985.256 366.526 984.969 365.379C982.048 353.727 979.112 342.075 976.191 330.424C969.169 302.434 962.147 274.461 955.109 246.471C946.603 212.616 938.113 178.744 929.607 144.889C922.25 115.609 914.909 86.3119 907.552 57.0312C905.142 47.4038 902.716 37.7764 900.307 28.149C899.189 23.6701 898.551 18.5535 896.827 14.2658C896.748 14.0745 896.732 13.8514 896.668 13.6601C896.397 12.6081 895.232 12.0024 894.21 12.2734C880.039 16.051 865.867 19.8287 851.696 23.6063C843.573 25.7741 835.449 27.9418 827.326 30.1096C826.385 30.3646 823.592 31.1616 823.496 31.1616C824.119 31.1138 822.938 31.05 822.762 31.0341C801.92 29.7111 781.078 27.2724 760.283 25.3915C721.279 21.8689 682.276 18.3463 643.272 14.8078L530.044 4.57466C517.851 3.47485 505.643 2.37503 493.45 1.25927C488.487 0.812967 482.933 -0.414366 477.922 0.0638156C468.905 0.940482 459.697 3.7777 450.84 5.59479C431.641 9.54776 412.443 13.4848 393.228 17.4378C375.625 21.056 358.023 24.6742 340.404 28.2925C336.111 29.1692 331.834 30.0618 327.541 30.9384C325.913 31.2732 327.222 31.1456 325.02 31.1138C299.98 30.7312 274.909 31.1138 249.869 31.1138H41.1905C40.1531 31.1138 39.1318 32.0223 39.1956 33.1062C42.0203 83.5225 42.5151 134.784 35.142 184.817C27.8967 233.911 17.9702 282.653 7.8523 331.237C5.29887 343.478 2.72949 355.72 0.0483911 367.945C-0.494212 370.448 3.35189 371.516 3.89449 368.997V369.045Z" fill="#421B36"/>
<path d="M125.723 379.006C112.908 375.898 70.6171 364.167 27.4961 351.957C37.2789 304.809 60.1799 191.017 63.0206 144.857C65.223 108.929 64.7282 70.9616 64.0101 46.9888H326.805L477.713 15.3491C478.543 15.2534 479.373 15.2534 480.202 15.3491L827.069 47.4032L877.93 33.5519L952.937 338.728L837.874 327.124L832.575 328.829C788.337 342.999 737.987 358.413 724.98 361.377C701.345 358.429 550.517 334.743 456.663 319.792L452.067 319.058L447.503 319.903C330.173 341.74 154.912 374.145 125.755 379.006H125.723Z" fill="#FDB817"/>
<path d="M125.691 379.82L125.532 379.788C113.738 376.919 75.1815 366.303 27.2728 352.723L26.5547 352.516L26.6983 351.782C36.4333 304.905 59.3662 190.922 62.2069 144.793C64.3773 109.392 63.9464 72.0777 63.1963 46.9891L63.1644 46.1762H326.71L477.538 14.5524C478.495 14.4409 479.389 14.4409 480.282 14.5524L826.99 46.6066L878.489 32.5799L878.681 33.3769L953.959 339.652L837.938 327.953L832.799 329.595C790.667 343.095 738.609 359.083 725.124 362.159L724.98 362.191H724.837C701.106 359.21 547.645 335.094 456.488 320.589L452.035 319.888L447.599 320.716C350.074 338.871 157.322 374.576 125.835 379.82L125.675 379.852L125.691 379.82ZM28.4219 351.384C75.756 364.805 113.85 375.293 125.755 378.194C157.721 372.854 349.978 337.246 447.327 319.122L452.035 318.246L456.759 318.995C547.725 333.468 700.739 357.52 724.917 360.549C738.577 357.409 790.364 341.501 832.32 328.064L837.778 326.311H837.938L951.884 337.819L877.34 34.5404L827.133 48.2164H826.99L480.123 16.1464C479.341 16.0507 478.559 16.0507 477.809 16.1464L326.901 47.7861H64.8242C65.5583 72.8906 65.9572 109.838 63.8028 144.905C60.9781 190.89 38.2366 304.044 28.4219 351.4V351.384Z" fill="#8380FF"/>
<path d="M61.698 104.881C61.698 104.881 172.118 119.194 168.128 146.706C162.207 187.447 78.6942 231.201 74.3374 268.323C67.4432 327.156 151.227 338.361 234.022 337.596C316.817 336.831 449.468 289.108 510.303 296.807C571.138 304.506 674.935 354.412 674.935 354.412L528.448 331.587L449.978 319.154C449.978 319.154 145.291 375.309 141.062 376.058C136.833 376.807 38.5097 353.424 32.7804 316.03C32.0782 311.44 56.5752 182.888 56.5752 182.888C56.5752 182.888 112.336 153.639 91.222 148.252C70.0924 142.864 60.1978 145.829 60.1978 145.829L61.682 104.881H61.698Z" fill="#A0D2F4"/>
<path d="M796.908 44.9006C796.908 44.9006 742.791 71.8222 769.698 86.9009C796.605 101.98 890.906 83.6811 890.906 83.6811C890.906 83.6811 879.559 33.7749 876.287 32.8504C870.766 31.2883 794.083 46.0163 794.083 46.0163" fill="#8380FF"/>
<g opacity="0.3">
<path d="M46.2329 171.237C46.0094 171.237 45.802 171.189 45.5945 171.109C39.8812 168.591 37.9342 167.029 38.1577 165.196C38.2694 164.319 39.0673 163.682 39.9291 163.809C40.6473 163.889 41.2058 164.447 41.3175 165.132C41.6048 165.419 42.7219 166.36 46.8872 168.193C47.7011 168.543 48.0522 169.484 47.7011 170.297C47.4457 170.886 46.8553 171.253 46.2488 171.253L46.2329 171.237Z" fill="#421B36"/>
<path d="M164.057 205.889C163.531 205.889 161.903 205.889 151.386 203.323C150.524 203.116 149.997 202.255 150.221 201.394C150.428 200.533 151.29 200.023 152.152 200.231C161.296 202.462 163.531 202.701 164.073 202.701C164.392 202.669 165.414 202.526 167.105 202.287C167.983 202.159 168.781 202.765 168.909 203.642C169.036 204.518 168.43 205.315 167.552 205.443C165.813 205.682 164.759 205.825 164.456 205.857C164.344 205.857 164.217 205.873 164.073 205.873L164.057 205.889ZM183.016 203.259C182.234 203.259 181.548 202.685 181.436 201.888C181.309 201.012 181.915 200.215 182.793 200.087L198.449 197.856C199.31 197.728 200.124 198.334 200.252 199.21C200.38 200.087 199.773 200.884 198.895 201.012L183.24 203.243C183.24 203.243 183.08 203.243 183.016 203.243V203.259ZM136.48 199.45C136.352 199.45 136.209 199.434 136.065 199.402C131.309 198.143 126.171 196.74 120.824 195.242C119.979 195.002 119.484 194.126 119.723 193.281C119.963 192.436 120.84 191.942 121.686 192.181C127.017 193.664 132.139 195.066 136.879 196.325C137.725 196.549 138.236 197.425 138.012 198.27C137.821 198.987 137.182 199.45 136.464 199.45H136.48ZM214.328 198.796C213.546 198.796 212.86 198.222 212.748 197.425C212.62 196.549 213.227 195.752 214.104 195.624L229.744 193.393C230.606 193.265 231.42 193.871 231.547 194.747C231.675 195.624 231.069 196.421 230.191 196.549L214.535 198.78C214.535 198.78 214.376 198.78 214.312 198.78L214.328 198.796ZM245.623 194.333C244.841 194.333 244.155 193.759 244.043 192.962C243.916 192.086 244.522 191.289 245.4 191.161L261.039 188.93C261.917 188.818 262.715 189.408 262.843 190.284C262.97 191.161 262.364 191.958 261.486 192.086L245.847 194.317C245.847 194.317 245.687 194.317 245.623 194.317V194.333ZM106.094 190.986C105.951 190.986 105.791 190.97 105.648 190.922C100.589 189.456 95.4977 187.941 90.5026 186.427C89.6567 186.172 89.178 185.279 89.4333 184.435C89.6886 183.59 90.5823 183.112 91.4282 183.367C96.4074 184.881 101.498 186.379 106.541 187.846C107.387 188.085 107.866 188.977 107.626 189.822C107.419 190.524 106.781 190.97 106.094 190.97V190.986ZM276.903 189.87C276.121 189.87 275.434 189.296 275.323 188.499C275.195 187.623 275.801 186.826 276.679 186.698L292.319 184.467C293.197 184.339 293.995 184.945 294.122 185.821C294.25 186.698 293.644 187.495 292.766 187.623L277.126 189.854C277.126 189.854 276.966 189.854 276.903 189.854V189.87ZM308.15 185.391C307.368 185.391 306.682 184.817 306.57 184.02C306.443 183.144 307.049 182.347 307.927 182.219L323.566 179.972C324.444 179.86 325.242 180.45 325.37 181.326C325.498 182.203 324.891 183 324.013 183.128L308.374 185.375C308.374 185.375 308.214 185.375 308.15 185.375V185.391ZM75.9161 181.821C75.7565 181.821 75.5969 181.789 75.4373 181.741C69.8517 179.956 64.7927 178.282 60.436 176.752C59.6061 176.465 59.1593 175.556 59.4465 174.728C59.7338 173.899 60.6434 173.452 61.4733 173.739C65.8141 175.254 70.8412 176.927 76.4108 178.696C77.2567 178.967 77.7195 179.86 77.4482 180.705C77.2247 181.374 76.6023 181.821 75.9321 181.821H75.9161ZM890.603 181.534C890.603 181.534 890.555 181.534 890.523 181.534L874.723 180.816C873.846 180.769 873.159 180.035 873.207 179.159C873.255 178.282 873.973 177.597 874.867 177.644L890.666 178.362C891.544 178.41 892.23 179.143 892.182 180.019C892.151 180.88 891.432 181.534 890.587 181.534H890.603ZM339.414 180.912C338.632 180.912 337.945 180.338 337.834 179.541C337.706 178.665 338.312 177.868 339.19 177.74L354.83 175.493C355.708 175.381 356.506 175.971 356.633 176.848C356.761 177.724 356.155 178.521 355.277 178.649L339.637 180.896C339.637 180.896 339.477 180.896 339.414 180.896V180.912ZM859.02 180.099C859.02 180.099 858.972 180.099 858.94 180.099L843.157 179.382C842.279 179.334 841.593 178.601 841.641 177.724C841.688 176.848 842.423 176.146 843.3 176.21L859.084 176.927C859.961 176.975 860.648 177.708 860.6 178.585C860.568 179.446 859.85 180.099 859.004 180.099H859.02ZM827.469 178.665C827.469 178.665 827.421 178.665 827.389 178.665L811.622 177.947C810.744 177.9 810.058 177.166 810.106 176.29C810.154 175.413 810.968 174.728 811.765 174.775L827.533 175.493C828.411 175.54 829.097 176.274 829.049 177.15C829.017 178.011 828.299 178.681 827.453 178.681L827.469 178.665ZM795.918 177.246C795.918 177.246 795.87 177.246 795.838 177.246L780.071 176.529C779.193 176.497 778.507 175.748 778.555 174.871C778.603 173.994 779.353 173.293 780.215 173.357L795.982 174.074C796.86 174.122 797.546 174.855 797.498 175.732C797.466 176.592 796.748 177.262 795.902 177.262L795.918 177.246ZM370.693 176.449C369.911 176.449 369.225 175.875 369.113 175.078C368.986 174.202 369.592 173.405 370.47 173.277L386.109 171.03C386.987 170.902 387.785 171.508 387.913 172.384C388.04 173.261 387.434 174.058 386.556 174.186L370.917 176.433C370.917 176.433 370.757 176.433 370.693 176.433V176.449ZM764.383 175.827C764.383 175.827 764.336 175.827 764.304 175.827L748.536 175.126C747.659 175.094 746.972 174.345 747.02 173.468C747.068 172.592 747.818 171.89 748.68 171.954L764.447 172.655C765.325 172.687 766.011 173.436 765.963 174.313C765.931 175.174 765.213 175.843 764.368 175.843L764.383 175.827ZM732.849 174.425C732.849 174.425 732.801 174.425 732.769 174.425L717.001 173.723C716.124 173.692 715.437 172.942 715.485 172.066C715.517 171.189 716.283 170.504 717.145 170.551L732.913 171.253C733.79 171.285 734.476 172.034 734.429 172.91C734.397 173.771 733.679 174.441 732.833 174.441L732.849 174.425ZM701.314 173.022C701.314 173.022 701.266 173.022 701.25 173.022L685.483 172.321C684.605 172.289 683.919 171.54 683.951 170.663C683.982 169.786 684.812 169.101 685.61 169.133L701.378 169.834C702.255 169.866 702.942 170.615 702.91 171.492C702.878 172.353 702.16 173.022 701.314 173.022ZM401.973 171.954C401.191 171.954 400.504 171.38 400.393 170.583C400.265 169.707 400.871 168.91 401.749 168.782L417.405 166.535C418.267 166.407 419.081 167.013 419.208 167.89C419.336 168.766 418.729 169.563 417.852 169.691L402.196 171.938C402.196 171.938 402.036 171.938 401.973 171.938V171.954ZM669.779 171.635C669.779 171.635 669.731 171.635 669.715 171.635L653.996 170.95C653.118 170.918 652.432 170.169 652.48 169.292C652.512 168.416 653.214 167.73 654.139 167.762L669.859 168.447C670.737 168.479 671.423 169.228 671.391 170.105C671.359 170.966 670.641 171.635 669.795 171.635H669.779ZM638.292 170.265C638.292 170.265 638.244 170.265 638.228 170.265L622.461 169.579C621.583 169.547 620.897 168.798 620.929 167.921C620.961 167.045 621.727 166.359 622.589 166.391L638.356 167.077C639.234 167.109 639.92 167.858 639.888 168.734C639.856 169.595 639.138 170.265 638.292 170.265ZM606.757 168.91C606.757 168.91 606.709 168.91 606.693 168.91L590.926 168.24C590.048 168.208 589.362 167.459 589.394 166.583C589.426 165.706 590.192 165.02 591.054 165.052L606.821 165.722C607.699 165.754 608.385 166.503 608.353 167.38C608.321 168.24 607.603 168.91 606.757 168.91ZM575.223 167.571C575.223 167.571 575.175 167.571 575.159 167.571L559.391 166.917C558.514 166.885 557.827 166.136 557.859 165.26C557.891 164.383 558.705 163.682 559.519 163.729L575.286 164.383C576.164 164.415 576.85 165.164 576.818 166.041C576.786 166.901 576.084 167.571 575.223 167.571ZM433.284 167.443C432.502 167.443 431.816 166.869 431.704 166.072C431.576 165.196 432.183 164.399 433.061 164.271L448.716 162.024C449.594 161.912 450.392 162.502 450.52 163.379C450.647 164.255 450.041 165.052 449.163 165.18L433.507 167.443C433.507 167.443 433.348 167.443 433.284 167.443ZM543.672 166.264C543.672 166.264 543.624 166.264 543.608 166.264L527.825 165.642C526.947 165.61 526.261 164.861 526.292 163.984C526.324 163.108 527.138 162.406 527.952 162.454L543.736 163.076C544.613 163.108 545.3 163.857 545.268 164.734C545.236 165.594 544.534 166.264 543.672 166.264ZM512.105 165.02C512.105 165.02 512.057 165.02 512.041 165.02C506.392 164.813 501.125 164.606 496.242 164.431C495.364 164.399 494.678 163.666 494.71 162.773C494.742 161.896 495.476 161.163 496.37 161.243C501.237 161.418 506.519 161.609 512.169 161.833C513.047 161.864 513.733 162.614 513.701 163.49C513.669 164.351 512.967 165.02 512.105 165.02ZM480.506 163.905C480.506 163.905 480.474 163.905 480.459 163.905C473.389 163.682 468.074 163.554 464.659 163.506C463.781 163.506 463.079 162.773 463.079 161.896C463.079 161.02 463.797 160.318 464.675 160.318H464.691C468.122 160.366 473.453 160.494 480.554 160.717C481.432 160.749 482.134 161.482 482.102 162.359C482.07 163.219 481.368 163.905 480.506 163.905Z" fill="#421B36"/>
<path d="M912.068 182.521C912.068 182.521 912.02 182.521 911.988 182.521L904.024 182.154C903.146 182.107 902.46 181.373 902.508 180.497C902.556 179.62 903.29 178.919 904.168 178.983L912.131 179.349C913.009 179.397 913.695 180.13 913.648 181.023C913.616 181.884 912.897 182.537 912.052 182.537L912.068 182.521Z" fill="#421B36"/>
</g>
<g opacity="0.3">
<path d="M127.321 399.649C127.225 399.649 127.129 399.649 127.033 399.617C126.172 399.458 125.597 398.629 125.741 397.768L128.597 382.084C128.757 381.223 129.587 380.634 130.449 380.809C131.31 380.968 131.885 381.797 131.725 382.658L128.869 398.342C128.725 399.107 128.055 399.649 127.305 399.649H127.321ZM133.05 368.296C132.954 368.296 132.858 368.296 132.763 368.265C131.901 368.105 131.326 367.276 131.486 366.416C132.459 361.172 133.417 355.943 134.375 350.747C134.534 349.886 135.364 349.297 136.242 349.472C137.103 349.631 137.678 350.46 137.518 351.337C136.561 356.533 135.587 361.761 134.63 367.005C134.486 367.77 133.816 368.312 133.066 368.312L133.05 368.296ZM138.875 336.96C138.779 336.96 138.683 336.96 138.572 336.928C137.71 336.768 137.135 335.939 137.295 335.063C138.284 329.819 139.258 324.591 140.247 319.394C140.407 318.534 141.253 317.96 142.115 318.119C142.976 318.279 143.551 319.123 143.391 319.984C142.402 325.18 141.428 330.393 140.439 335.637C140.295 336.402 139.625 336.944 138.875 336.944V336.96ZM144.828 305.623C144.732 305.623 144.62 305.623 144.524 305.591C143.663 305.431 143.088 304.587 143.264 303.726C144.269 298.482 145.29 293.27 146.312 288.058C146.487 287.197 147.317 286.623 148.179 286.798C149.041 286.974 149.615 287.802 149.44 288.663C148.418 293.859 147.413 299.088 146.408 304.316C146.264 305.081 145.594 305.607 144.844 305.607L144.828 305.623ZM150.956 274.302C150.86 274.302 150.748 274.302 150.637 274.27C149.775 274.095 149.216 273.266 149.376 272.389C150.413 267.161 151.467 261.949 152.52 256.753C152.695 255.892 153.541 255.35 154.403 255.509C155.265 255.685 155.823 256.529 155.648 257.39C154.594 262.586 153.541 267.799 152.504 273.027C152.36 273.792 151.69 274.302 150.94 274.302H150.956ZM157.307 243.045C157.196 243.045 157.084 243.045 156.988 243.013C156.127 242.837 155.568 241.993 155.743 241.132C156.829 235.92 157.914 230.724 159.015 225.527C159.191 224.667 160.036 224.125 160.914 224.3C161.776 224.491 162.335 225.336 162.143 226.197C161.042 231.393 159.957 236.589 158.871 241.785C158.712 242.535 158.058 243.061 157.307 243.061V243.045ZM163.93 211.867C163.819 211.867 163.707 211.867 163.595 211.835C162.734 211.644 162.191 210.799 162.382 209.939C163.515 204.742 164.649 199.562 165.814 194.366C166.005 193.505 166.867 192.979 167.713 193.154C168.574 193.346 169.117 194.19 168.926 195.051C167.777 200.231 166.627 205.412 165.494 210.608C165.335 211.357 164.665 211.867 163.93 211.867ZM170.857 180.769C170.745 180.769 170.617 180.769 170.505 180.722C169.644 180.53 169.117 179.67 169.309 178.809C170.49 173.645 171.686 168.464 172.899 163.284C173.107 162.423 173.969 161.897 174.814 162.088C175.676 162.296 176.203 163.14 176.011 164.001C174.798 169.181 173.602 174.346 172.421 179.51C172.245 180.243 171.591 180.753 170.873 180.753L170.857 180.769ZM178.134 149.767C178.006 149.767 177.879 149.767 177.767 149.719C176.905 149.512 176.378 148.652 176.586 147.791C177.831 142.642 179.091 137.494 180.368 132.314C180.576 131.453 181.437 130.943 182.299 131.15C183.161 131.357 183.672 132.218 183.464 133.079C182.187 138.243 180.927 143.392 179.682 148.524C179.506 149.257 178.852 149.751 178.134 149.751V149.767ZM185.794 118.845C185.666 118.845 185.539 118.845 185.395 118.797C184.533 118.574 184.023 117.713 184.246 116.868C185.555 111.736 186.879 106.587 188.236 101.423C188.459 100.578 189.321 100.068 190.183 100.291C191.029 100.515 191.539 101.391 191.332 102.236C189.991 107.4 188.651 112.533 187.358 117.665C187.167 118.383 186.528 118.861 185.81 118.861L185.794 118.845ZM193.853 88.0021C193.71 88.0021 193.582 87.9862 193.438 87.9543C192.593 87.7312 192.082 86.8545 192.305 86.0097C193.678 80.8931 195.066 75.7766 196.487 70.6122C196.726 69.7675 197.604 69.2733 198.45 69.4965C199.295 69.7356 199.806 70.6122 199.567 71.457C198.146 76.6055 196.758 81.722 195.385 86.8226C195.194 87.5399 194.556 88.0021 193.837 88.0021H193.853ZM202.312 57.271C202.168 57.271 202.024 57.255 201.881 57.2072C201.035 56.9681 200.54 56.0914 200.78 55.2467C202.216 50.162 203.684 45.0454 205.168 39.913C205.408 39.0682 206.301 38.59 207.147 38.8291C207.993 39.0682 208.488 39.9608 208.232 40.8056C206.748 45.9381 205.28 51.0387 203.844 56.1233C203.652 56.8247 202.998 57.2869 202.312 57.2869V57.271Z" fill="#421B36"/>
</g>
<g opacity="0.3">
<path d="M446.116 325.976C445.238 325.976 444.536 325.275 444.52 324.398C444.456 319.09 444.409 313.767 444.361 308.459C444.361 307.582 445.063 306.865 445.941 306.849C446.818 306.849 447.537 307.55 447.537 308.427C447.568 313.735 447.632 319.043 447.696 324.366C447.696 325.243 446.994 325.96 446.116 325.976ZM445.893 294.097C445.015 294.097 444.297 293.38 444.297 292.503V286.271C444.297 283.035 444.297 279.8 444.297 276.548C444.297 275.671 445.015 274.954 445.893 274.954C446.771 274.954 447.489 275.671 447.489 276.548C447.489 279.784 447.489 283.02 447.489 286.255V292.472C447.489 293.348 446.786 294.066 445.909 294.066L445.893 294.097ZM445.989 262.219C445.111 262.219 444.393 261.485 444.409 260.609C444.456 255.301 444.504 249.977 444.584 244.653C444.584 243.777 445.302 243.075 446.18 243.075H446.196C447.074 243.075 447.776 243.809 447.776 244.685C447.712 249.993 447.648 255.301 447.6 260.609C447.6 261.485 446.882 262.187 446.004 262.187L445.989 262.219ZM446.419 230.34H446.387C445.51 230.324 444.808 229.591 444.824 228.714C444.919 223.39 445.031 218.082 445.159 212.775C445.175 211.898 445.893 211.213 446.786 211.213C447.664 211.228 448.366 211.962 448.35 212.838C448.223 218.146 448.111 223.454 448.015 228.762C447.999 229.638 447.281 230.324 446.419 230.324V230.34ZM447.17 198.477H447.122C446.244 198.445 445.542 197.712 445.574 196.835C445.733 191.527 445.893 186.204 446.068 180.896C446.1 180.019 446.818 179.302 447.712 179.35C448.59 179.382 449.276 180.115 449.26 180.991C449.085 186.299 448.909 191.607 448.765 196.915C448.733 197.776 448.031 198.461 447.17 198.461V198.477ZM448.239 166.614C448.239 166.614 448.191 166.614 448.175 166.614C447.297 166.582 446.611 165.833 446.643 164.956C446.85 159.649 447.074 154.341 447.297 149.017C447.329 148.14 448.095 147.455 448.957 147.487C449.835 147.519 450.521 148.268 450.489 149.145C450.25 154.452 450.042 159.76 449.835 165.068C449.803 165.929 449.101 166.598 448.239 166.598V166.614ZM449.643 134.767C449.643 134.767 449.595 134.767 449.563 134.767C448.686 134.719 447.999 133.97 448.047 133.094C448.303 127.786 448.574 122.478 448.861 117.17C448.909 116.293 449.659 115.624 450.537 115.656C451.415 115.704 452.085 116.453 452.037 117.329C451.75 122.637 451.478 127.945 451.223 133.237C451.175 134.098 450.473 134.751 449.627 134.751L449.643 134.767ZM451.367 102.936C451.367 102.936 451.303 102.936 451.271 102.936C450.393 102.888 449.723 102.123 449.771 101.247C450.09 95.9388 450.409 90.631 450.76 85.3232C450.824 84.4465 451.574 83.793 452.452 83.8408C453.33 83.9045 454 84.6537 453.936 85.5304C453.601 90.8382 453.266 96.1301 452.947 101.438C452.899 102.283 452.197 102.936 451.351 102.936H451.367ZM453.409 71.1212C453.409 71.1212 453.33 71.1212 453.298 71.1212C452.42 71.0574 451.75 70.2923 451.814 69.4156C452.181 64.1078 452.564 58.8159 452.963 53.5081C453.026 52.6315 453.792 51.962 454.67 52.0417C455.548 52.1055 456.202 52.8705 456.138 53.7472C455.739 59.0391 455.356 64.3469 454.989 69.6388C454.926 70.4836 454.223 71.1212 453.393 71.1212H453.409ZM455.771 39.3221C455.771 39.3221 455.692 39.3221 455.644 39.3221C454.766 39.2583 454.112 38.4773 454.175 37.6006C454.59 32.2928 455.037 27.0009 455.484 21.709C455.564 20.8324 456.33 20.1788 457.208 20.2585C458.085 20.3382 458.74 21.1033 458.66 21.98C458.213 27.2719 457.782 32.5638 457.351 37.8556C457.287 38.6845 456.585 39.3221 455.755 39.3221H455.771Z" fill="#421B36"/>
</g>
<g opacity="0.3">
<path d="M718.869 369.619C718.869 369.619 718.805 369.619 718.773 369.619C717.896 369.571 717.225 368.822 717.273 367.945C717.577 362.637 717.864 357.346 718.119 352.038C718.167 351.161 718.917 350.476 719.795 350.523C720.673 350.571 721.359 351.32 721.311 352.197C721.056 357.505 720.768 362.813 720.465 368.121C720.417 368.965 719.715 369.619 718.869 369.619ZM720.449 337.788C720.449 337.788 720.401 337.788 720.385 337.788C719.508 337.756 718.821 337.007 718.853 336.13C719.077 330.822 719.284 325.515 719.46 320.223C719.492 319.346 720.242 318.645 721.103 318.693C721.981 318.724 722.667 319.458 722.636 320.334C722.444 325.642 722.252 330.966 722.029 336.274C721.997 337.134 721.279 337.804 720.433 337.804L720.449 337.788ZM721.55 305.925H721.502C720.625 305.893 719.923 305.16 719.954 304.283C720.098 298.975 720.226 293.668 720.337 288.36C720.353 287.483 721.072 286.798 721.933 286.798H721.965C722.843 286.814 723.545 287.547 723.529 288.424C723.418 293.747 723.29 299.055 723.146 304.363C723.114 305.224 722.412 305.909 721.55 305.909V305.925ZM722.189 274.046H722.173C721.295 274.046 720.593 273.313 720.593 272.436C720.657 267.129 720.704 261.821 720.736 256.513C720.736 255.636 721.455 254.919 722.332 254.919C723.21 254.919 723.928 255.636 723.928 256.513C723.896 261.837 723.848 267.144 723.785 272.468C723.785 273.345 723.066 274.046 722.189 274.046ZM722.364 242.167C721.487 242.167 720.768 241.45 720.768 240.573C720.768 235.266 720.72 229.958 720.673 224.65C720.673 223.773 721.375 223.056 722.253 223.04C723.13 223.04 723.848 223.742 723.848 224.618C723.896 229.942 723.928 235.25 723.944 240.573C723.944 241.45 723.226 242.167 722.348 242.167H722.364ZM722.077 210.289C721.215 210.289 720.497 209.587 720.481 208.727C720.385 203.419 720.29 198.111 720.162 192.803C720.146 191.926 720.832 191.193 721.726 191.177C722.651 191.161 723.338 191.847 723.354 192.739C723.481 198.047 723.593 203.371 723.673 208.679C723.673 209.555 722.987 210.289 722.109 210.305H722.077V210.289ZM721.311 178.426C720.449 178.426 719.747 177.74 719.715 176.88C719.555 171.572 719.364 166.264 719.156 160.956C719.125 160.08 719.811 159.33 720.689 159.299C721.502 159.251 722.316 159.952 722.348 160.829C722.556 166.137 722.731 171.46 722.907 176.768C722.939 177.645 722.237 178.378 721.359 178.41C721.343 178.41 721.327 178.41 721.311 178.41V178.426ZM720.082 146.563C719.236 146.563 718.534 145.893 718.486 145.049C718.247 139.741 717.976 134.449 717.688 129.141C717.64 128.265 718.311 127.515 719.204 127.468C720.05 127.404 720.832 128.089 720.88 128.982C721.167 134.29 721.423 139.597 721.678 144.921C721.726 145.798 721.04 146.547 720.162 146.579C720.13 146.579 720.114 146.579 720.082 146.579V146.563ZM718.39 114.732C717.561 114.732 716.858 114.078 716.795 113.234C716.475 107.926 716.124 102.634 715.773 97.3421C715.709 96.4654 716.38 95.7003 717.257 95.6366C718.135 95.6206 718.901 96.2423 718.965 97.1189C719.332 102.427 719.667 107.735 719.986 113.042C720.034 113.919 719.364 114.684 718.486 114.732C718.454 114.732 718.422 114.732 718.39 114.732ZM716.22 82.9329C715.39 82.9329 714.688 82.2953 714.624 81.4664C714.225 76.1746 713.81 70.8827 713.363 65.5908C713.3 64.7141 713.938 63.949 714.832 63.8693C715.693 63.8056 716.475 64.4432 716.555 65.3358C716.986 70.6276 717.417 75.9355 717.816 81.2433C717.88 82.12 717.225 82.885 716.348 82.9488C716.3 82.9488 716.268 82.9488 716.22 82.9488V82.9329ZM713.587 51.1656C712.773 51.1656 712.071 50.544 711.991 49.7152C711.512 44.4233 711.017 39.1473 710.507 33.8554C710.427 32.9788 711.065 32.1978 711.943 32.1181C712.805 32.0384 713.603 32.6759 713.683 33.5526C714.193 38.8445 714.704 44.1364 715.167 49.4282C715.247 50.3049 714.592 51.0859 713.714 51.1656C713.667 51.1656 713.619 51.1656 713.571 51.1656H713.587Z" fill="#421B36"/>
</g>
<path d="M613.492 150.452C616.476 148.125 619.763 145.702 623.498 144.81C627.104 143.949 629.961 145.256 632.961 147.121C635.307 148.571 637.797 150.086 640.67 149.846C643.367 149.639 645.617 148.029 647.819 146.611C651.17 144.443 654.235 143.598 658.049 145.352C661.113 146.754 663.698 149.049 666.842 150.309C671.279 152.094 677.838 150.867 678.301 145.176C678.396 143.901 676.402 143.901 676.306 145.176C676.003 148.826 671.582 149.687 668.693 148.858C665.374 147.902 662.709 145.479 659.677 143.933C657.059 142.61 654.139 141.797 651.234 142.642C648.713 143.375 646.654 145.081 644.436 146.404C641.515 148.125 638.882 148.221 635.914 146.579C633.488 145.24 631.27 143.423 628.509 142.785C622.333 141.367 616.635 145.463 612.055 149.034C611.05 149.815 612.47 151.217 613.46 150.436L613.492 150.452Z" fill="#8380FF"/>
<path d="M685.995 118.031C688.133 115.768 690.894 114.301 693.974 113.839C697.358 113.329 700.262 114.285 703.31 115.688C705.784 116.82 708.369 118.063 711.178 117.824C713.843 117.601 715.934 115.959 718.088 114.556C721.28 112.468 724.52 112.197 728.206 113.026C731.19 113.695 734.047 114.859 737.063 115.321C741.5 115.991 746.527 115.385 749.112 111.289C749.798 110.205 748.075 109.2 747.389 110.284C744.165 115.385 736.936 113.408 732.244 112.054C729.227 111.177 726.084 110.268 722.908 110.587C720.067 110.874 717.897 112.309 715.583 113.855C712.582 115.847 709.901 116.294 706.502 114.939C703.725 113.823 701.156 112.277 698.155 111.846C693.16 111.129 688.053 112.978 684.59 116.628C683.713 117.553 685.117 118.971 685.995 118.031Z" fill="#8380FF"/>
<path d="M638.947 77.1777C642.123 74.6115 646.176 73.2885 650.278 73.4957C654.635 73.7348 658.13 76.4764 662.359 77.114C666.029 77.6719 668.343 76.317 670.641 73.6073C673.833 69.8616 678.605 71.6468 682.419 73.432C683.568 73.9739 684.59 72.2525 683.425 71.7105C680.073 70.1325 675.956 68.427 672.269 69.8775C670.418 70.6107 669.508 72.0612 668.2 73.4479C666.253 75.4882 663.667 75.5519 661.082 74.7709C658.816 74.0855 656.757 72.89 654.491 72.2206C652.544 71.6308 650.469 71.3917 648.427 71.5033C644.405 71.7265 640.655 73.2407 637.543 75.7591C636.553 76.572 637.958 77.9747 638.947 77.1618V77.1777Z" fill="#8380FF"/>
<path d="M586.283 59.7564C587.863 56.9989 591.006 55.3252 594.198 55.7237C597.278 56.1063 599.592 58.545 602.513 59.4216C605.593 60.3461 608.274 58.9913 610.827 57.3495C612.934 55.9787 618.584 52.9024 619.318 57.4292C619.525 58.6884 621.44 58.1624 621.249 56.9032C620.738 53.7791 617.243 52.5677 614.466 53.269C610.333 54.321 607.205 59.055 602.577 57.3495C599.05 56.0425 596.448 53.3647 592.427 53.7313C589.155 54.0341 586.203 55.915 584.575 58.7681C583.937 59.8839 585.66 60.8881 586.299 59.7723L586.283 59.7564Z" fill="#8380FF"/>
<g clip-path="url(#clip1_1095_11192)">
<path d="M272.736 134.393C257.235 65.6812 195.199 72.8144 195.199 72.8144C195.199 72.8144 132.753 74.0137 126.596 144.209C120.44 214.372 208.206 266.292 208.206 266.292C208.206 266.292 288.237 203.136 272.736 134.393ZM202.713 184.83C181.119 186.282 162.461 169.964 161.008 148.375C159.556 126.786 175.878 108.133 197.472 106.681C219.066 105.229 237.725 121.547 239.177 143.136C240.629 164.724 224.307 183.378 202.713 184.83Z" fill="#1681BA"/>
<path d="M195.263 288.45C174.774 278.382 153.779 268.724 132.564 260.202C127.986 258.371 125.271 265.599 129.281 267.966C149.044 279.708 171.617 287.377 194.316 290.66C195.547 290.849 196.621 289.113 195.263 288.419V288.45Z" fill="#1681BA"/>
<path d="M241.987 285.767C251.584 279.518 259.824 271.564 268.538 264.147C278.135 255.941 288.301 248.271 297.583 239.749C301.055 236.561 296.32 230.091 292.437 233.058C273.999 247.135 253.763 265.283 241.008 284.789C240.629 285.357 241.387 286.146 241.955 285.736L241.987 285.767Z" fill="#1681BA"/>
<path d="M266.866 292.931C278.136 291.163 289.375 289.459 300.52 286.902C305.097 285.861 303.14 278.98 298.594 279.927C287.449 282.2 276.558 285.261 265.571 288.291C262.509 289.143 263.866 293.404 266.834 292.931H266.866Z" fill="#1681BA"/>
</g>
<g clip-path="url(#clip2_1095_11192)">
<path d="M498.285 116.718C493.259 71.6046 453.122 71.7855 453.122 71.7855C453.122 71.7855 413.144 68.1362 404.229 112.667C395.316 157.178 447.699 196.647 447.699 196.647C447.699 196.647 503.309 161.851 498.285 116.718ZM449.972 144.074C436.073 143.476 425.312 131.703 425.917 117.771C426.521 103.838 438.272 93.0435 452.17 93.6411C466.068 94.2387 476.83 106.012 476.225 119.944C475.621 133.877 463.87 144.671 449.972 144.074Z" fill="#1681BA"/>
<path d="M437.857 209.924C425.483 202.024 412.756 194.352 399.808 187.392C397.013 185.896 394.766 190.334 397.159 192.134C408.951 201.053 422.827 207.563 437.095 211.272C437.869 211.48 438.678 210.444 437.86 209.903L437.857 209.924Z" fill="#1681BA"/>
<path d="M467.897 211.512C474.472 208.187 480.301 203.675 486.394 199.54C493.107 194.962 500.146 190.768 506.68 185.966C509.125 184.169 506.559 179.689 503.867 181.315C491.09 189.029 476.874 199.223 467.342 210.816C467.059 211.153 467.487 211.712 467.88 211.489L467.897 211.512Z" fill="#1681BA"/>
<path d="M483.28 217.861C490.606 217.526 497.907 217.23 505.208 216.38C508.206 216.037 507.444 211.491 504.472 211.776C497.192 212.443 490.016 213.634 482.783 214.797C480.766 215.127 481.331 217.952 483.26 217.859L483.28 217.861Z" fill="#1681BA"/>
</g>
<g clip-path="url(#clip3_1095_11192)">
<path d="M799.353 127.57C786.782 70.0881 735.061 75.7383 735.061 75.7383C735.061 75.7383 683.028 76.4291 677.548 135.042C672.068 193.629 744.931 237.443 744.931 237.443C744.931 237.443 811.924 185.078 799.353 127.57ZM740.761 169.358C722.763 170.463 707.299 156.738 706.197 138.694C705.095 120.651 718.787 105.148 736.786 104.043C754.784 102.938 770.247 116.663 771.349 134.707C772.451 152.75 758.759 168.253 740.761 169.358Z" fill="#1681BA"/>
<path d="M734.036 255.887C717.016 247.373 699.572 239.2 681.94 231.975C678.135 230.422 675.837 236.447 679.165 238.445C695.572 248.353 714.34 254.873 733.236 257.728C734.26 257.892 735.163 256.447 734.036 255.861L734.036 255.887Z" fill="#1681BA"/>
<path d="M772.977 253.878C781.004 248.705 787.909 242.101 795.206 235.948C803.243 229.14 811.75 222.783 819.526 215.71C822.435 213.064 818.522 207.635 815.272 210.094C799.841 221.763 782.89 236.824 772.166 253.056C771.848 253.529 772.475 254.192 772.951 253.852L772.977 253.878Z" fill="#1681BA"/>
<path d="M793.668 259.989C803.067 258.568 812.439 257.2 821.737 255.12C825.556 254.273 823.96 248.514 820.167 249.283C810.871 251.126 801.781 253.629 792.613 256.106C790.057 256.803 791.167 260.369 793.642 259.988L793.668 259.989Z" fill="#1681BA"/>
</g>
</g>
<defs>
<clipPath id="clip0_1095_11192">
<rect width="985" height="404" fill="white"/>
</clipPath>
<clipPath id="clip1_1095_11192">
<rect width="176.826" height="220.369" fill="white" transform="translate(126.281 72.5938)"/>
</clipPath>
<clipPath id="clip2_1095_11192">
<rect width="113.653" height="142.032" fill="white" transform="matrix(0.993924 0.110064 -0.11012 0.993918 409.109 66.7676)"/>
</clipPath>
<clipPath id="clip3_1095_11192">
<rect width="147.324" height="184.109" fill="white" transform="matrix(0.999982 0.0059806 -0.00598364 0.999982 677.643 75.209)"/>
</clipPath>
</defs>
</svg>
